<?xml version="1.0" standalone="yes"?>

<svg version="1.1" viewBox="0.0 0.0 960.0 540.0" fill="none" stroke="none" stroke-linecap="square" stroke-miterlimit="10" xmlns="http://www.w3.org/2000/svg" xmlns:xlink="http://www.w3.org/1999/xlink"><clipPath id="p.0"><path d="m0 0l960.0 0l0 540.0l-960.0 0l0 -540.0z" clip-rule="nonzero"></path></clipPath><g clip-path="url(#p.0)"><path fill="#212121" d="m0 0l960.0 0l0 540.0l-960.0 0z" fill-rule="nonzero"></path><path fill="#000000" fill-opacity="0.0" d="m32.725285 78.1706l894.5512 0l0 215.49606l-894.5512 0z" fill-rule="nonzero"></path><path fill="#ffffff" d="m144.62366 268.22665l18.96875 -49.39061l7.03125 0l20.21875 49.39061l-7.453125 0l-5.75 -14.95311l-20.65625 0l-5.421875 14.95311l-6.9375 0zm14.25 -20.281235l16.734375 0l-5.15625 -13.6875q-2.359375 -6.21875 -3.5 -10.234375q-0.9375 4.75 -2.65625 9.4375l-5.421875 14.484375zm36.491318 20.281235l0 -49.39061l6.078125 0l0 49.39061l-6.078125 0zm14.433746 2.96875l5.890625 0.875q0.375 2.71875 2.0625 3.96875q2.25 1.6875 6.15625 1.6875q4.21875 0 6.5 -1.6875q2.296875 -1.6875 3.109375 -4.71875q0.46875 -1.84375 0.4375 -7.78125q-3.96875 4.6875 -9.90625 4.6875q-7.375 0 -11.421875 -5.3125q-4.046875 -5.328125 -4.046875 -12.781235q0 -5.125 1.859375 -9.453125q1.859375 -4.328125 5.375 -6.6875q3.515625 -2.359375 8.265625 -2.359375q6.34375 0 10.453125 5.125l0 -4.3125l5.59375 0l0 30.92186q0 8.359375 -1.703125 11.84375q-1.703125 3.5 -5.390625 5.515625q-3.6875 2.015625 -9.078125 2.015625q-6.40625 0 -10.359375 -2.875q-3.9375 -2.875 -3.796875 -8.671875zm5.015625 -21.499985q0 7.0468597 2.796875 10.281235q2.796875 3.234375 7.015625 3.234375q4.171875 0 7.0 -3.21875q2.828125 -3.21875 2.828125 -10.093735q0 -6.5625 -2.921875 -9.890625q-2.90625 -3.34375 -7.015625 -3.34375q-4.046875 0 -6.875 3.28125q-2.828125 3.28125 -2.828125 9.75zm32.400757 0.640625q0 -9.9375 5.515625 -14.71875q4.6250153 -3.984375 11.250015 -3.984375q7.390625 0 12.0625 4.84375q4.6875 4.828125 4.6875 13.359375q0 6.9062347 -2.078125 10.85936q-2.0625 3.953125 -6.03125 6.15625q-3.953125 2.1875 -8.640625 2.1875q-7.5 0 -12.14064 -4.8125q-4.625 -4.828125 -4.625 -13.89061zm6.234375 0q0 6.8749847 2.9843903 10.29686q3.0 3.421875 7.546875 3.421875q4.515625 0 7.515625 -3.4375q3.0 -3.4375 3.0 -10.48436q0 -6.640625 -3.015625 -10.046875q-3.015625 -3.421875 -7.5 -3.421875q-4.546875 0 -7.546875 3.40625q-2.9843903 3.390625 -2.9843903 10.265625zm34.510147 17.89061l0 -35.781235l5.4530945 0l0 5.421875q2.09375 -3.796875 3.859375 -5.015625q1.765625 -1.21875 3.890625 -1.21875q3.0625 0 6.234375 1.953125l-2.09375 5.625q-2.21875 -1.3125 -4.4375 -1.3125q-2.0 0 -3.578125 1.203125q-1.578125 1.1875 -2.25 3.3125q-1.015625 3.234375 -1.015625 7.078125l0 18.73436l-6.0624695 0zm23.180542 -42.42186l0 -6.96875l6.0625 0l0 6.96875l-6.0625 0zm0 42.42186l0 -35.781235l6.0625 0l0 35.781235l-6.0625 0zm28.621246 -5.421875l0.875 5.359375q-2.5625 0.53125 -4.59375 0.53125q-3.296875 0 -5.125 -1.046875q-1.8125 -1.046875 -2.5625 -2.734375q-0.734375 -1.703125 -0.734375 -7.171875l0 -20.57811l-4.4375 0l0 -4.71875l4.4375 0l0 -8.859375l6.03125 -3.640625l0 12.5l6.109375 0l0 4.71875l-6.109375 0l0 20.92186q0 2.59375 0.3125 3.34375q0.328125 0.734375 1.046875 1.171875q0.734375 0.4375 2.078125 0.4375q1.015625 0 2.671875 -0.234375zm6.0115967 5.421875l0 -35.781235l5.421875 0l0 5.015625q1.6875 -2.625 4.484375 -4.21875q2.796875 -1.609375 6.375 -1.609375q3.96875 0 6.515625 1.65625q2.546875 1.65625 3.578125 4.609375q4.25 -6.265625 11.0625 -6.265625q5.3125 0 8.171875 2.953125q2.875 2.953125 2.875 9.078125l0 24.562485l-6.03125 0l0 -22.54686q0 -3.625 -0.59375 -5.21875q-0.578125 -1.609375 -2.140625 -2.578125q-1.546875 -0.984375 -3.640625 -0.984375q-3.765625 0 -6.265625 2.515625q-2.484375 2.5 -2.484375 8.03125l0 20.781235l-6.0625 0l0 -23.249985q0 -4.046875 -1.484375 -6.0625q-1.484375 -2.015625 -4.859375 -2.015625q-2.5625 0 -4.734375 1.34375q-2.171875 1.34375 -3.15625 3.9375q-0.96875 2.59375 -0.96875 7.484375l0 18.562485l-6.0625 0zm55.500854 -17.89061q0 -9.9375 5.515625 -14.71875q4.625 -3.984375 11.25 -3.984375q7.390625 0 12.0625 4.84375q4.6875 4.828125 4.6875 13.359375q0 6.9062347 -2.078125 10.85936q-2.0625 3.953125 -6.03125 6.15625q-3.953125 2.1875 -8.640625 2.1875q-7.5 0 -12.140625 -4.8125q-4.625 -4.828125 -4.625 -13.89061zm6.234375 0q0 6.8749847 2.984375 10.29686q3.0 3.421875 7.546875 3.421875q4.515625 0 7.515625 -3.4375q3.0 -3.4375 3.0 -10.48436q0 -6.640625 -3.015625 -10.046875q-3.015625 -3.421875 -7.5 -3.421875q-4.546875 0 -7.546875 3.40625q-2.984375 3.390625 -2.984375 10.265625zm77.05298 17.89061l0 -4.515625q-3.40625 5.328125 -10.015625 5.328125q-4.265625 0 -7.859375 -2.359375q-3.59375 -2.359375 -5.5625 -6.578125q-1.96875 -4.2343597 -1.96875 -9.73436q0 -5.359375 1.78125 -9.71875q1.796875 -4.359375 5.359375 -6.6875q3.578125 -2.328125 7.984375 -2.328125q3.234375 0 5.765625 1.375q2.53125 1.359375 4.109375 3.546875l0 -17.71875l6.03125 0l0 49.39061l-5.625 0zm-19.171875 -17.85936q0 6.8749847 2.890625 10.281235q2.90625 3.40625 6.84375 3.40625q3.96875 0 6.75 -3.25q2.78125 -3.265625 2.78125 -9.92186q0 -7.359375 -2.828125 -10.78125q-2.828125 -3.4375 -6.96875 -3.4375q-4.046875 0 -6.765625 3.296875q-2.703125 3.296875 -2.703125 10.40625zm59.01013 6.3437347l6.265625 0.765625q-1.484375 5.5 -5.5 8.53125q-4.0 3.03125 -10.234375 3.03125q-7.859375 0 -12.453125 -4.828125q-4.59375 -4.84375 -4.59375 -13.57811q0 -9.015625 4.640625 -14.0q4.65625 -5.0 12.0625 -5.0q7.1875 0 11.734375 4.890625q4.546875 4.890625 4.546875 13.75q0 0.53125 -0.03125 1.609375l-26.6875 0q0.328125 5.9062347 3.328125 9.04686q3.0 3.125 7.484375 3.125q3.328125 0 5.6875 -1.75q2.359375 -1.765625 3.75 -5.59375zm-19.921875 -9.812485l19.984375 0q-0.40625 -4.515625 -2.296875 -6.765625q-2.890625 -3.515625 -7.5 -3.515625q-4.1875 0 -7.03125 2.796875q-2.84375 2.796875 -3.15625 7.484375zm50.67798 7.3125l5.90625 -0.8125q0.234375 5.6562347 2.109375 7.7499847q1.890625 2.09375 5.234375 2.09375q2.453125 0 4.234375 -1.125q1.796875 -1.140625 2.46875 -3.078125q0.671875 -1.9375 0.671875 -6.1718597l0 -34.03125l6.53125 0l0 33.65625q0 6.2031097 -1.5 9.60936q-1.5 3.390625 -4.75 5.1875q-3.25 1.78125 -7.625 1.78125q-6.5 0 -9.953125 -3.734375q-3.453125 -3.75 -3.328125 -11.124985zm34.976562 -3.875q0 -9.9375 5.515625 -14.71875q4.625 -3.984375 11.25 -3.984375q7.390625 0 12.0625 4.84375q4.6875 4.828125 4.6875 13.359375q0 6.9062347 -2.078125 10.85936q-2.0625 3.953125 -6.03125 6.15625q-3.953125 2.1875 -8.640625 2.1875q-7.5 0 -12.140625 -4.8125q-4.625 -4.828125 -4.625 -13.89061zm6.234375 0q0 6.8749847 2.984375 10.29686q3.0 3.421875 7.546875 3.421875q4.515625 0 7.515625 -3.4375q3.0 -3.4375 3.0 -10.48436q0 -6.640625 -3.015625 -10.046875q-3.015625 -3.421875 -7.5 -3.421875q-4.546875 0 -7.546875 3.40625q-2.984375 3.390625 -2.984375 10.265625zm34.57263 17.89061l0 -49.39061l6.0625 0l0 17.71875q4.25 -4.921875 10.71875 -4.921875q3.96875 0 6.90625 1.578125q2.9375 1.5625 4.1875 4.328125q1.265625 2.75 1.265625 8.015625l0 22.67186l-6.0625 0l0 -22.67186q0 -4.546875 -1.96875 -6.609375q-1.96875 -2.078125 -5.578125 -2.078125q-2.6875 0 -5.0625 1.390625q-2.375 1.390625 -3.390625 3.796875q-1.015625 2.390625 -1.015625 6.59375l0 19.57811l-6.0625 0zm38.557007 0l0 -35.781235l5.453125 0l0 5.09375q3.953125 -5.90625 11.390625 -5.90625q3.234375 0 5.9375 1.171875q2.71875 1.15625 4.0625 3.046875q1.359375 1.890625 1.890625 4.484375q0.34375 1.671875 0.34375 5.890625l0 21.999985l-6.0625 0l0 -21.76561q0 -3.703125 -0.71875 -5.53125q-0.703125 -1.84375 -2.5 -2.9375q-1.796875 -1.09375 -4.234375 -1.09375q-3.875 0 -6.6875 2.453125q-2.8125 2.453125 -2.8125 9.328125l0 19.54686l-6.0625 0zm36.13513 -10.6875l6.0 -0.9375q0.5 3.609375 2.796875 5.53125q2.3125 1.921875 6.46875 1.921875q4.171875 0 6.1875 -1.703125q2.03125 -1.703125 2.03125 -4.0q0 -2.046875 -1.796875 -3.2343597q-1.234375 -0.8125 -6.1875 -2.046875q-6.671875 -1.6875 -9.25 -2.921875q-2.578125 -1.234375 -3.90625 -3.40625q-1.328125 -2.171875 -1.328125 -4.796875q0 -2.390625 1.09375 -4.421875q1.09375 -2.046875 2.96875 -3.390625q1.421875 -1.046875 3.859375 -1.765625q2.453125 -0.734375 5.25 -0.734375q4.203125 0 7.390625 1.21875q3.1875 1.21875 4.703125 3.296875q1.515625 2.0625 2.078125 5.53125l-5.921875 0.8125q-0.40625 -2.765625 -2.34375 -4.3125q-1.9375 -1.5625 -5.46875 -1.5625q-4.1875 0 -5.96875 1.390625q-1.78125 1.375 -1.78125 3.234375q0 1.171875 0.734375 2.125q0.75 0.96875 2.328125 1.609375q0.90625 0.34375 5.359375 1.546875q6.4375 1.71875 8.96875 2.8125q2.546875 1.09375 4.0 3.1875q1.453125 2.09375 1.453125 5.1874847q0 3.03125 -1.78125 5.71875q-1.765625 2.671875 -5.109375 4.140625q-3.328125 1.46875 -7.53125 1.46875q-6.984375 0 -10.640625 -2.890625q-3.640625 -2.90625 -4.65625 -8.609375zm34.835938 -7.2031097q0 -9.9375 5.515625 -14.71875q4.625 -3.984375 11.25 -3.984375q7.390625 0 12.0625 4.84375q4.6875 4.828125 4.6875 13.359375q0 6.9062347 -2.078125 10.85936q-2.0625 3.953125 -6.03125 6.15625q-3.953125 2.1875 -8.640625 2.1875q-7.5 0 -12.140625 -4.8125q-4.625 -4.828125 -4.625 -13.89061zm6.234375 0q0 6.8749847 2.984375 10.29686q3.0 3.421875 7.546875 3.421875q4.515625 0 7.515625 -3.4375q3.0 -3.4375 3.0 -10.48436q0 -6.640625 -3.015625 -10.046875q-3.015625 -3.421875 -7.5 -3.421875q-4.546875 0 -7.546875 3.40625q-2.984375 3.390625 -2.984375 10.265625zm34.57263 17.89061l0 -35.781235l5.453125 0l0 5.09375q3.953125 -5.90625 11.390625 -5.90625q3.234375 0 5.9375 1.171875q2.71875 1.15625 4.0625 3.046875q1.359375 1.890625 1.890625 4.484375q0.34375 1.671875 0.34375 5.890625l0 21.999985l-6.0625 0l0 -21.76561q0 -3.703125 -0.71875 -5.53125q-0.703125 -1.84375 -2.5 -2.9375q-1.796875 -1.09375 -4.234375 -1.09375q-3.875 0 -6.6875 2.453125q-2.8125 2.453125 -2.8125 9.328125l0 19.54686l-6.0625 0z" fill-rule="nonzero"></path><path fill="#000000" fill-opacity="0.0" d="m0 400.7638l424.6929 0l0 52.31494l-424.6929 0z" fill-rule="nonzero"></path><path fill="#adadad" d="m69.51051 432.80377l0 -17.1875l7.609375 0q2.296875 0 3.484375 0.46875q1.203125 0.46875 1.921875 1.640625q0.71875 1.171875 0.71875 2.578125q0 1.828125 -1.1875 3.09375q-1.1875 1.25 -3.65625 1.59375q0.90625 0.421875 1.375 0.84375q1.0 0.921875 1.890625 2.296875l2.984375 4.671875l-2.859375 0l-2.28125 -3.578125q-0.984375 -1.546875 -1.640625 -2.359375q-0.640625 -0.828125 -1.15625 -1.15625q-0.5 -0.328125 -1.03125 -0.453125q-0.390625 -0.078125 -1.265625 -0.078125l-2.640625 0l0 7.625l-2.265625 0zm2.265625 -9.59375l4.890625 0q1.5625 0 2.4375 -0.328125q0.875 -0.328125 1.328125 -1.03125q0.46875 -0.703125 0.46875 -1.546875q0 -1.21875 -0.890625 -2.0q-0.875 -0.78125 -2.796875 -0.78125l-5.4375 0l0 5.6875zm14.769531 -5.15625l0 -2.4375l2.109375 0l0 2.4375l-2.109375 0zm0 14.75l0 -12.453125l2.109375 0l0 12.453125l-2.109375 0zm13.441406 -4.5625l2.078125 0.265625q-0.34375 2.15625 -1.75 3.375q-1.390625 1.203125 -3.4375 1.203125q-2.546875 0 -4.109375 -1.671875q-1.546875 -1.671875 -1.546875 -4.78125q0 -2.015625 0.671875 -3.53125q0.671875 -1.515625 2.03125 -2.265625q1.359375 -0.765625 2.96875 -0.765625q2.03125 0 3.3125 1.03125q1.296875 1.03125 1.65625 2.90625l-2.046875 0.328125q-0.296875 -1.265625 -1.046875 -1.890625q-0.734375 -0.640625 -1.796875 -0.640625q-1.59375 0 -2.59375 1.15625q-0.984375 1.140625 -0.984375 3.609375q0 2.5 0.953125 3.640625q0.96875 1.140625 2.515625 1.140625q1.234375 0 2.0625 -0.765625q0.84375 -0.765625 1.0625 -2.34375zm3.875 4.5625l0 -17.1875l2.109375 0l0 6.171875q1.484375 -1.71875 3.734375 -1.71875q1.375 0 2.390625 0.546875q1.03125 0.546875 1.46875 1.515625q0.4375 0.953125 0.4375 2.78125l0 7.890625l-2.109375 0l0 -7.890625q0 -1.578125 -0.6875 -2.296875q-0.6875 -0.71875 -1.9375 -0.71875q-0.9375 0 -1.765625 0.484375q-0.828125 0.484375 -1.1875 1.3125q-0.34375 0.828125 -0.34375 2.296875l0 6.8125l-2.109375 0zm21.472656 -1.53125q-1.171875 0.984375 -2.265625 1.40625q-1.078125 0.40625 -2.3125 0.40625q-2.046875 0 -3.15625 -1.0q-1.09375 -1.0 -1.09375 -2.5625q0 -0.921875 0.40625 -1.671875q0.421875 -0.75 1.09375 -1.203125q0.671875 -0.46875 1.515625 -0.703125q0.625 -0.15625 1.875 -0.3125q2.5625 -0.3125 3.765625 -0.734375q0.015625 -0.421875 0.015625 -0.546875q0 -1.28125 -0.609375 -1.8125q-0.796875 -0.71875 -2.390625 -0.71875q-1.5 0 -2.203125 0.53125q-0.703125 0.515625 -1.046875 1.84375l-2.0625 -0.28125q0.28125 -1.328125 0.921875 -2.140625q0.640625 -0.8125 1.859375 -1.25q1.21875 -0.453125 2.828125 -0.453125q1.59375 0 2.59375 0.375q1.0 0.375 1.46875 0.953125q0.46875 0.5625 0.65625 1.4375q0.09375 0.53125 0.09375 1.9375l0 2.8125q0 2.9375 0.140625 3.71875q0.140625 0.78125 0.53125 1.5l-2.203125 0q-0.328125 -0.65625 -0.421875 -1.53125zm-0.171875 -4.71875q-1.15625 0.46875 -3.453125 0.796875q-1.296875 0.1875 -1.84375 0.421875q-0.53125 0.234375 -0.828125 0.6875q-0.28125 0.453125 -0.28125 1.0q0 0.84375 0.625 1.40625q0.640625 0.5625 1.875 0.5625q1.21875 0 2.171875 -0.53125q0.953125 -0.53125 1.390625 -1.453125q0.34375 -0.71875 0.34375 -2.109375l0 -0.78125zm5.3789062 6.25l0 -12.453125l1.890625 0l0 1.890625q0.734375 -1.328125 1.34375 -1.75q0.625 -0.421875 1.359375 -0.421875q1.0625 0 2.171875 0.6875l-0.734375 1.953125q-0.765625 -0.453125 -1.546875 -0.453125q-0.6875 0 -1.25 0.421875q-0.546875 0.40625 -0.78125 1.140625q-0.34375 1.125 -0.34375 2.46875l0 6.515625l-2.109375 0zm16.085938 0l0 -1.578125q-1.1875 1.859375 -3.484375 1.859375q-1.484375 0 -2.734375 -0.8125q-1.25 -0.828125 -1.9375 -2.296875q-0.671875 -1.46875 -0.671875 -3.390625q0 -1.859375 0.609375 -3.375q0.625 -1.515625 1.859375 -2.328125q1.25 -0.8125 2.78125 -0.8125q1.125 0 2.0 0.484375q0.890625 0.46875 1.4375 1.234375l0 -6.171875l2.09375 0l0 17.1875l-1.953125 0zm-6.671875 -6.21875q0 2.390625 1.0 3.578125q1.015625 1.1875 2.390625 1.1875q1.390625 0 2.34375 -1.125q0.96875 -1.140625 0.96875 -3.453125q0 -2.5625 -0.984375 -3.75q-0.984375 -1.203125 -2.421875 -1.203125q-1.40625 0 -2.359375 1.15625q-0.9375 1.140625 -0.9375 3.609375zm17.0 6.21875l6.59375 -17.1875l2.453125 0l7.03125 17.1875l-2.59375 0l-2.0 -5.203125l-7.1875 0l-1.890625 5.203125l-2.40625 0zm4.953125 -7.0625l5.828125 0l-1.796875 -4.75q-0.8125 -2.171875 -1.21875 -3.5625q-0.328125 1.65625 -0.921875 3.28125l-1.890625 5.03125zm12.6640625 7.0625l0 -12.453125l1.90625 0l0 1.78125q1.375 -2.0625 3.953125 -2.0625q1.125 0 2.0625 0.40625q0.953125 0.40625 1.421875 1.0625q0.46875 0.65625 0.65625 1.5625q0.125 0.578125 0.125 2.046875l0 7.65625l-2.109375 0l0 -7.578125q0 -1.28125 -0.25 -1.921875q-0.25 -0.640625 -0.875 -1.015625q-0.625 -0.390625 -1.46875 -0.390625q-1.34375 0 -2.328125 0.859375q-0.984375 0.859375 -0.984375 3.25l0 6.796875l-2.109375 0zm17.957031 -1.890625l0.3125 1.859375q-0.890625 0.203125 -1.59375 0.203125q-1.15625 0 -1.796875 -0.359375q-0.625 -0.375 -0.890625 -0.96875q-0.25 -0.59375 -0.25 -2.484375l0 -7.171875l-1.546875 0l0 -1.640625l1.546875 0l0 -3.078125l2.09375 -1.265625l0 4.34375l2.125 0l0 1.640625l-2.125 0l0 7.28125q0 0.90625 0.109375 1.171875q0.125 0.25 0.375 0.40625q0.25 0.140625 0.71875 0.140625q0.34375 0 0.921875 -0.078125zm1.2773438 -4.328125q0 -3.46875 1.921875 -5.125q1.609375 -1.390625 3.921875 -1.390625q2.5625 0 4.1875 1.6875q1.625 1.6875 1.625 4.640625q0 2.40625 -0.71875 3.78125q-0.71875 1.375 -2.09375 2.140625q-1.375 0.765625 -3.0 0.765625q-2.625 0 -4.234375 -1.671875q-1.609375 -1.6875 -1.609375 -4.828125zm2.171875 0q0 2.390625 1.03125 3.578125q1.046875 1.1875 2.640625 1.1875q1.5625 0 2.609375 -1.1875q1.046875 -1.203125 1.046875 -3.65625q0 -2.3125 -1.0625 -3.5q-1.046875 -1.1875 -2.59375 -1.1875q-1.59375 0 -2.640625 1.1875q-1.03125 1.1875 -1.03125 3.578125zm11.957031 6.21875l0 -12.453125l1.90625 0l0 1.78125q1.375 -2.0625 3.953125 -2.0625q1.125 0 2.0625 0.40625q0.953125 0.40625 1.421875 1.0625q0.46875 0.65625 0.65625 1.5625q0.125 0.578125 0.125 2.046875l0 7.65625l-2.109375 0l0 -7.578125q0 -1.28125 -0.25 -1.921875q-0.25 -0.640625 -0.875 -1.015625q-0.625 -0.390625 -1.46875 -0.390625q-1.34375 0 -2.328125 0.859375q-0.984375 0.859375 -0.984375 3.25l0 6.796875l-2.109375 0zm13.253906 4.796875l-0.234375 -1.984375q0.703125 0.1875 1.21875 0.1875q0.703125 0 1.125 -0.234375q0.421875 -0.234375 0.6875 -0.65625q0.203125 -0.3125 0.640625 -1.5625q0.0625 -0.1875 0.1875 -0.515625l-4.71875 -12.484375l2.265625 0l2.59375 7.21875q0.5 1.359375 0.90625 2.875q0.359375 -1.453125 0.859375 -2.828125l2.671875 -7.265625l2.109375 0l-4.734375 12.671875q-0.765625 2.046875 -1.1875 2.8125q-0.5625 1.046875 -1.296875 1.53125q-0.71875 0.484375 -1.734375 0.484375q-0.609375 0 -1.359375 -0.25zm31.292969 -10.828125l2.28125 0.578125q-0.71875 2.796875 -2.578125 4.28125q-1.859375 1.46875 -4.546875 1.46875q-2.765625 0 -4.515625 -1.125q-1.734375 -1.140625 -2.640625 -3.28125q-0.90625 -2.15625 -0.90625 -4.609375q0 -2.6875 1.015625 -4.6875q1.03125 -2.0 2.921875 -3.03125q1.890625 -1.03125 4.171875 -1.03125q2.578125 0 4.328125 1.3125q1.765625 1.3125 2.453125 3.6875l-2.234375 0.53125q-0.609375 -1.875 -1.75 -2.734375q-1.125 -0.859375 -2.84375 -0.859375q-1.984375 0 -3.3125 0.953125q-1.328125 0.953125 -1.875 2.546875q-0.53125 1.59375 -0.53125 3.296875q0 2.1875 0.625 3.828125q0.640625 1.640625 1.984375 2.453125q1.359375 0.796875 2.921875 0.796875q1.921875 0 3.234375 -1.09375q1.328125 -1.109375 1.796875 -3.28125zm4.785141 6.03125l0 -12.453125l1.890625 0l0 1.890625q0.734375 -1.328125 1.34375 -1.75q0.625 -0.421875 1.359375 -0.421875q1.0625 0 2.171875 0.6875l-0.734375 1.953125q-0.765625 -0.453125 -1.546875 -0.453125q-0.6875 0 -1.25 0.421875q-0.546875 0.40625 -0.78125 1.140625q-0.34375 1.125 -0.34375 2.46875l0 6.515625l-2.109375 0zm16.164062 0l0 -1.828125q-1.453125 2.109375 -3.9375 2.109375q-1.109375 0 -2.0625 -0.421875q-0.953125 -0.421875 -1.421875 -1.0625q-0.453125 -0.640625 -0.640625 -1.5625q-0.140625 -0.625 -0.140625 -1.96875l0 -7.71875l2.109375 0l0 6.90625q0 1.65625 0.140625 2.234375q0.1875 0.828125 0.828125 1.3125q0.65625 0.46875 1.609375 0.46875q0.9375 0 1.765625 -0.484375q0.84375 -0.5 1.1875 -1.328125q0.34375 -0.84375 0.34375 -2.4375l0 -6.671875l2.109375 0l0 12.453125l-1.890625 0zm4.0820312 0l0 -1.71875l7.921875 -9.09375q-1.34375 0.078125 -2.375 0.078125l-5.078125 0l0 -1.71875l10.171875 0l0 1.40625l-6.734375 7.890625l-1.296875 1.4375q1.40625 -0.09375 2.65625 -0.09375l5.75 0l0 1.8125l-11.015625 0zm20.089844 0l0 -17.1875l7.609375 0q2.296875 0 3.484375 0.46875q1.203125 0.46875 1.921875 1.640625q0.71875 1.171875 0.71875 2.578125q0 1.828125 -1.1875 3.09375q-1.1875 1.25 -3.65625 1.59375q0.90625 0.421875 1.375 0.84375q1.0 0.921875 1.890625 2.296875l2.984375 4.671875l-2.859375 0l-2.28125 -3.578125q-0.984375 -1.546875 -1.640625 -2.359375q-0.640625 -0.828125 -1.15625 -1.15625q-0.5 -0.328125 -1.03125 -0.453125q-0.390625 -0.078125 -1.265625 -0.078125l-2.640625 0l0 7.625l-2.265625 0zm2.265625 -9.59375l4.890625 0q1.5625 0 2.4375 -0.328125q0.875 -0.328125 1.328125 -1.03125q0.46875 -0.703125 0.46875 -1.546875q0 -1.21875 -0.890625 -2.0q-0.875 -0.78125 -2.796875 -0.78125l-5.4375 0l0 5.6875zm13.972656 3.375q0 -3.46875 1.921875 -5.125q1.609375 -1.390625 3.921875 -1.390625q2.5625 0 4.1875 1.6875q1.625 1.6875 1.625 4.640625q0 2.40625 -0.71875 3.78125q-0.71875 1.375 -2.09375 2.140625q-1.375 0.765625 -3.0 0.765625q-2.625 0 -4.234375 -1.671875q-1.609375 -1.6875 -1.609375 -4.828125zm2.171875 0q0 2.390625 1.03125 3.578125q1.046875 1.1875 2.640625 1.1875q1.5625 0 2.609375 -1.1875q1.046875 -1.203125 1.046875 -3.65625q0 -2.3125 -1.0625 -3.5q-1.046875 -1.1875 -2.59375 -1.1875q-1.59375 0 -2.640625 1.1875q-1.03125 1.1875 -1.03125 3.578125zm11.957031 -8.515625l0 -2.453125l2.109375 0l0 2.453125l-2.109375 0zm-2.6875 19.5625l0.40625 -1.796875q0.625 0.171875 1.0 0.171875q0.640625 0 0.953125 -0.4375q0.328125 -0.421875 0.328125 -2.125l0 -13.09375l2.109375 0l0 13.140625q0 2.296875 -0.609375 3.1875q-0.75 1.171875 -2.53125 1.171875q-0.859375 0 -1.65625 -0.21875zm16.144531 -6.359375q-1.171875 0.984375 -2.265625 1.40625q-1.078125 0.40625 -2.3125 0.40625q-2.046875 0 -3.15625 -1.0q-1.09375 -1.0 -1.09375 -2.5625q0 -0.921875 0.40625 -1.671875q0.421875 -0.75 1.09375 -1.203125q0.671875 -0.46875 1.515625 -0.703125q0.625 -0.15625 1.875 -0.3125q2.5625 -0.3125 3.765625 -0.734375q0.015625 -0.421875 0.015625 -0.546875q0 -1.28125 -0.609375 -1.8125q-0.796875 -0.71875 -2.390625 -0.71875q-1.5 0 -2.203125 0.53125q-0.703125 0.515625 -1.046875 1.84375l-2.0625 -0.28125q0.28125 -1.328125 0.921875 -2.140625q0.640625 -0.8125 1.859375 -1.25q1.21875 -0.453125 2.828125 -0.453125q1.59375 0 2.59375 0.375q1.0 0.375 1.46875 0.953125q0.46875 0.5625 0.65625 1.4375q0.09375 0.53125 0.09375 1.9375l0 2.8125q0 2.9375 0.140625 3.71875q0.140625 0.78125 0.53125 1.5l-2.203125 0q-0.328125 -0.65625 -0.421875 -1.53125zm-0.171875 -4.71875q-1.15625 0.46875 -3.453125 0.796875q-1.296875 0.1875 -1.84375 0.421875q-0.53125 0.234375 -0.828125 0.6875q-0.28125 0.453125 -0.28125 1.0q0 0.84375 0.625 1.40625q0.640625 0.5625 1.875 0.5625q1.21875 0 2.171875 -0.53125q0.953125 -0.53125 1.390625 -1.453125q0.34375 -0.71875 0.34375 -2.109375l0 -0.78125zm4.5507812 2.53125l2.09375 -0.328125q0.171875 1.25 0.96875 1.921875q0.8125 0.671875 2.25 0.671875q1.453125 0 2.15625 -0.59375q0.703125 -0.59375 0.703125 -1.390625q0 -0.71875 -0.625 -1.125q-0.421875 -0.28125 -2.15625 -0.71875q-2.3125 -0.578125 -3.21875 -1.0q-0.890625 -0.4375 -1.359375 -1.1875q-0.453125 -0.765625 -0.453125 -1.671875q0 -0.828125 0.375 -1.53125q0.390625 -0.71875 1.046875 -1.1875q0.484375 -0.359375 1.328125 -0.609375q0.859375 -0.265625 1.828125 -0.265625q1.46875 0 2.578125 0.421875q1.109375 0.421875 1.625 1.15625q0.53125 0.71875 0.734375 1.921875l-2.0625 0.28125q-0.140625 -0.96875 -0.8125 -1.5q-0.671875 -0.546875 -1.90625 -0.546875q-1.453125 0 -2.078125 0.484375q-0.625 0.484375 -0.625 1.125q0 0.40625 0.265625 0.734375q0.25 0.34375 0.8125 0.5625q0.3125 0.125 1.859375 0.546875q2.234375 0.59375 3.109375 0.984375q0.890625 0.375 1.390625 1.109375q0.515625 0.71875 0.515625 1.796875q0 1.046875 -0.625 1.984375q-0.609375 0.9375 -1.765625 1.453125q-1.15625 0.5 -2.625 0.5q-2.421875 0 -3.703125 -1.0q-1.265625 -1.015625 -1.625 -3.0z" fill-rule="nonzero"></path></g></svg>

