<?xml version="1.0" standalone="yes"?>

<svg version="1.1" viewBox="0.0 0.0 960.0 540.0" fill="none" stroke="none" stroke-linecap="square" stroke-miterlimit="10" xmlns="http://www.w3.org/2000/svg" xmlns:xlink="http://www.w3.org/1999/xlink"><clipPath id="g10299d34e1_0_45.0"><path d="m0 0l960.0 0l0 540.0l-960.0 0l0 -540.0z" clip-rule="nonzero"></path></clipPath><g clip-path="url(#g10299d34e1_0_45.0)"><path fill="#212121" d="m0 0l960.0 0l0 540.0l-960.0 0z" fill-rule="nonzero"></path><path fill="#000000" fill-opacity="0.0" d="m32.72441 225.81102l894.55115 0l0 88.377945l-894.55115 0z" fill-rule="nonzero"></path><path fill="#ffffff" d="m391.80078 262.18936l0 4.796875l-4.8125 0l0 -4.796875l4.8125 0zm-0.28125 8.453125q0.015625 0.796875 0.015625 1.203125q0 2.578125 -0.703125 4.375q-0.515625 1.359375 -1.65625 2.75q-0.84375 1.0 -3.046875 2.921875q-2.1875 1.921875 -2.828125 3.078125q-0.640625 1.140625 -0.640625 2.515625q0 2.484375 1.921875 4.328125q1.921875 1.859375 4.703125 1.859375q2.671875 0 4.484375 -1.6875q1.828125 -1.6875 2.390625 -5.265625l4.3125 0.5q-0.59375 4.765625 -3.484375 7.34375q-2.890625 2.578125 -7.625 2.578125q-5.0625 0 -8.0625 -2.75q-2.984375 -2.734375 -2.984375 -6.625q0 -2.28125 1.046875 -4.15625q1.046875 -1.875 4.109375 -4.59375q2.09375 -1.859375 2.71875 -2.71875q0.640625 -0.875 0.921875 -2.0q0.296875 -1.125 0.34375 -3.65625l4.0625 0zm42.164062 12.75q3.15625 2.1875 5.828125 3.1875l-1.328125 3.171875q-3.703125 -1.328125 -7.390625 -4.21875q-3.8125 2.140625 -8.4375 2.140625q-4.65625 0 -8.453125 -2.25q-3.796875 -2.265625 -5.859375 -6.34375q-2.046875 -4.078125 -2.046875 -9.1875q0 -5.078125 2.0625 -9.25q2.0625 -4.171875 5.875 -6.3437347q3.8125 -2.1875 8.515625 -2.1875q4.765625 0 8.578125 2.265625q3.828125 2.2499847 5.828125 6.3281097q2.0 4.0625 2.0 9.171875q0 4.234375 -1.296875 7.625q-1.28125 3.390625 -3.875 5.890625zm-10.015625 -5.8125q3.9375 1.109375 6.5 3.28125q4.0 -3.65625 4.0 -10.984375q0 -4.171875 -1.421875 -7.28125q-1.40625 -3.125 -4.140625 -4.84375q-2.734375 -1.734375 -6.125 -1.734375q-5.09375 0 -8.453125 3.484375q-3.34375 3.484375 -3.34375 10.390625q0 6.703125 3.3125 10.296875q3.328125 3.578125 8.484375 3.578125q2.4375 0 4.59375 -0.90625q-2.140625 -1.390625 -4.5 -1.96875l1.09375 -3.3125zm37.085938 9.5l0 -3.65625q-2.90625 4.21875 -7.90625 4.21875q-2.203125 0 -4.109375 -0.84375q-1.90625 -0.84375 -2.84375 -2.125q-0.921875 -1.28125 -1.296875 -3.125q-0.25 -1.25 -0.25 -3.9375l0 -15.421875l4.21875 0l0 13.796875q0 3.3125 0.25 4.453125q0.40625 1.671875 1.6875 2.625q1.296875 0.9375 3.1875 0.9375q1.90625 0 3.5625 -0.96875q1.671875 -0.96875 2.359375 -2.640625q0.6875 -1.6875 0.6875 -4.875l0 -13.328125l4.21875 0l0 24.890625l-3.765625 0zm27.414062 -8.015625l4.359375 0.53125q-1.03125 3.828125 -3.828125 5.9375q-2.78125 2.109375 -7.109375 2.109375q-5.46875 0 -8.671875 -3.359375q-3.1875 -3.375 -3.1875 -9.4375q0 -6.28125 3.234375 -9.75q3.234375 -3.46875 8.390625 -3.46875q4.984375 0 8.140625 3.40625q3.171875 3.390625 3.171875 9.546875q0 0.375 -0.015625 1.125l-18.5625 0q0.234375 4.109375 2.3125 6.296875q2.09375 2.171875 5.203125 2.171875q2.328125 0 3.96875 -1.21875q1.640625 -1.21875 2.59375 -3.890625zm-13.84375 -6.828125l13.890625 0q-0.28125 -3.140625 -1.59375 -4.703125q-2.015625 -2.4375 -5.21875 -2.4375q-2.90625 0 -4.890625 1.953125q-1.984375 1.9375 -2.1875 5.1875zm4.84375 -13.140625l3.125 -6.5624847l5.53125 0l-5.15625 6.5624847l-3.5 0zm49.03125 19.96875l4.359375 0.53125q-1.03125 3.828125 -3.828125 5.9375q-2.78125 2.109375 -7.109375 2.109375q-5.46875 0 -8.671875 -3.359375q-3.1875 -3.375 -3.1875 -9.4375q0 -6.28125 3.234375 -9.75q3.234375 -3.46875 8.390625 -3.46875q4.984375 0 8.140625 3.40625q3.171875 3.390625 3.171875 9.546875q0 0.375 -0.015625 1.125l-18.5625 0q0.234375 4.109375 2.3125 6.296875q2.09375 2.171875 5.203125 2.171875q2.328125 0 3.96875 -1.21875q1.640625 -1.21875 2.59375 -3.890625zm-13.84375 -6.828125l13.890625 0q-0.28125 -3.140625 -1.59375 -4.703125q-2.015625 -2.4375 -5.21875 -2.4375q-2.90625 0 -4.890625 1.953125q-1.984375 1.9375 -2.1875 5.1875zm21.820312 7.40625l4.171875 -0.65625q0.34375 2.515625 1.953125 3.859375q1.609375 1.328125 4.484436 1.328125q2.90625 0 4.3125 -1.1875q1.40625 -1.1875 1.40625 -2.78125q0 -1.421875 -1.234375 -2.25q-0.875 -0.5625 -4.3125 -1.421875q-4.640686 -1.171875 -6.437561 -2.03125q-1.796875 -0.859375 -2.71875 -2.359375q-0.921875 -1.515625 -0.921875 -3.34375q0 -1.671875 0.75 -3.078125q0.765625 -1.421875 2.078125 -2.359375q0.984375 -0.734375 2.6875 -1.234375q1.703125 -0.5 3.640686 -0.5q2.9375 0 5.140625 0.84375q2.21875 0.84375 3.265625 2.28125q1.0625 1.4375 1.46875 3.859375l-4.125 0.5625q-0.28125 -1.921875 -1.640625 -3.0q-1.34375 -1.078125 -3.796875 -1.078125q-2.906311 0 -4.156311 0.96875q-1.234375 0.953125 -1.234375 2.234375q0 0.828125 0.515625 1.484375q0.515625 0.671875 1.609375 1.125q0.640625 0.234375 3.734436 1.078125q4.46875 1.1875 6.234375 1.953125q1.78125 0.765625 2.78125 2.21875q1.015625 1.453125 1.015625 3.609375q0 2.109375 -1.234375 3.96875q-1.234375 1.859375 -3.5625 2.890625q-2.3125 1.015625 -5.234375 1.015625q-4.859436 0 -7.406311 -2.015625q-2.53125 -2.015625 -3.234375 -5.984375zm33.578186 -1.03125q-0.015625 -0.84375 -0.015625 -1.265625q0 -2.484375 0.703125 -4.28125q0.515625 -1.359375 1.65625 -2.75q0.84375 -1.0 3.03125 -2.9375q2.203125 -1.9375 2.859375 -3.078125q0.65625 -1.15625 0.65625 -2.515625q0 -2.453125 -1.921875 -4.3125q-1.921875 -1.8749847 -4.71875 -1.8749847q-2.6875 0 -4.5 1.6874847q-1.796875 1.6875 -2.359375 5.28125l-4.34375 -0.515625q0.59375 -4.8125 3.484375 -7.3593597q2.890625 -2.5625 7.65625 -2.5625q5.03125 0 8.03125 2.75q3.0 2.7343597 3.0 6.6249847q0 2.25 -1.0625 4.15625q-1.046875 1.890625 -4.109375 4.609375q-2.0625 1.828125 -2.703125 2.703125q-0.625 0.859375 -0.9375 1.984375q-0.296875 1.125 -0.34375 3.65625l-4.0625 0zm-0.25 8.46875l0 -4.8125l4.796875 0l0 4.8125l-4.796875 0z" fill-rule="nonzero"></path></g></svg>

