<?xml version="1.0" standalone="yes"?>

<svg version="1.1" viewBox="0.0 0.0 960.0 540.0" fill="none" stroke="none" stroke-linecap="square" stroke-miterlimit="10" xmlns="http://www.w3.org/2000/svg" xmlns:xlink="http://www.w3.org/1999/xlink"><clipPath id="g10299d34e1_0_298.0"><path d="m0 0l960.0 0l0 540.0l-960.0 0l0 -540.0z" clip-rule="nonzero"></path></clipPath><g clip-path="url(#g10299d34e1_0_298.0)"><path fill="#212121" d="m0 0l960.0 0l0 540.0l-960.0 0z" fill-rule="nonzero"></path><path fill="#000000" fill-opacity="0.0" d="m32.72441 116.12861l894.55115 0l0 206.14175l-894.55115 0z" fill-rule="nonzero"></path><path fill="#ffffff" d="m409.41406 274.87033l0 -72.031235l-12.421875 0l0 -10.9375l12.421875 0l0 -8.828125q0 -8.359375 1.484375 -12.421875q2.03125 -5.46875 7.140625 -8.859375q5.125 -3.40625 14.34375 -3.40625q5.9375 0 13.125 1.40625l-2.109375 12.265625q-4.375 -0.78125 -8.28125 -0.78125q-6.40625 0 -9.0625 2.734375q-2.65625 2.734375 -2.65625 10.234375l0 7.65625l16.171875 0l0 10.9375l-16.171875 0l0 72.031235l-13.984375 0zm41.171875 -98.35936l0 -16.171875l14.0625 0l0 16.171875l-14.0625 0zm0 98.35936l0 -82.968735l14.0625 0l0 82.968735l-14.0625 0zm35.46875 0l0 -82.968735l12.65625 0l0 11.796875q9.140625 -13.671875 26.40625 -13.671875q7.5 0 13.78125 2.703125q6.296936 2.6875 9.421936 7.0625q3.125 4.375 4.375 10.390625q0.78125 3.90625 0.78125 13.671875l0 51.01561l-14.062561 0l0 -50.468735q0 -8.59375 -1.640625 -12.84375q-1.640625 -4.265625 -5.828125 -6.796875q-4.171875 -2.546875 -9.796875 -2.546875q-8.984375 0 -15.515625 5.703125q-6.515625 5.703125 -6.515625 21.640625l0 45.312485l-14.0625 0z" fill-rule="nonzero"></path></g></svg>

