<?xml version="1.0" standalone="yes"?>

<svg version="1.1" viewBox="0.0 0.0 960.0 540.0" fill="none" stroke="none" stroke-linecap="square" stroke-miterlimit="10" xmlns="http://www.w3.org/2000/svg" xmlns:xlink="http://www.w3.org/1999/xlink"><clipPath id="g10299d34e1_0_81.0"><path d="m0 0l960.0 0l0 540.0l-960.0 0l0 -540.0z" clip-rule="nonzero"></path></clipPath><g clip-path="url(#g10299d34e1_0_81.0)"><path fill="#212121" d="m0 0l960.0 0l0 540.0l-960.0 0z" fill-rule="nonzero"></path><path fill="#000000" fill-opacity="0.0" d="m32.72441 46.721786l894.55115 0l0 60.125984l-894.55115 0z" fill-rule="nonzero"></path><path fill="#ffffff" d="m44.583786 91.56178l0 -26.484375l9.125 0q3.078125 0 4.703125 0.375q2.28125 0.53125 3.890625 1.90625q2.09375 1.765625 3.125 4.53125q1.046875 2.75 1.046875 6.28125q0 3.015625 -0.703125 5.359375q-0.703125 2.328125 -1.8125 3.859375q-1.09375 1.515625 -2.40625 2.390625q-1.3125 0.875 -3.171875 1.328125q-1.84375 0.453125 -4.25 0.453125l-9.546875 0zm3.5 -3.125l5.65625 0q2.625 0 4.109375 -0.484375q1.484375 -0.484375 2.375 -1.375q1.25 -1.25 1.9375 -3.34375q0.703125 -2.109375 0.703125 -5.109375q0 -4.15625 -1.375 -6.390625q-1.359375 -2.234375 -3.3125 -2.984375q-1.40625 -0.546875 -4.53125 -0.546875l-5.5625 0l0 20.234375zm35.550934 0.765625q-1.796875 1.53125 -3.46875 2.171875q-1.671875 0.625 -3.59375 0.625q-3.15625 0 -4.859375 -1.546875q-1.6875 -1.546875 -1.6875 -3.953125q0 -1.40625 0.640625 -2.5625q0.640625 -1.171875 1.671875 -1.875q1.046875 -0.703125 2.34375 -1.0625q0.953125 -0.265625 2.890625 -0.5q3.9375 -0.46875 5.796875 -1.109375q0.015625 -0.671875 0.015625 -0.859375q0 -1.984375 -0.921875 -2.796875q-1.25 -1.09375 -3.703125 -1.09375q-2.296875 0 -3.390625 0.796875q-1.09375 0.796875 -1.609375 2.84375l-3.1875 -0.4375q0.4375 -2.03125 1.421875 -3.28125q1.0 -1.265625 2.875 -1.9375q1.890625 -0.6875 4.359375 -0.6875q2.46875 0 4.0 0.578125q1.53125 0.578125 2.25 1.453125q0.734375 0.875 1.015625 2.21875q0.15625 0.828125 0.15625 3.0l0 4.328125q0 4.546875 0.203125 5.75q0.21875 1.1875 0.828125 2.296875l-3.390625 0q-0.5 -1.015625 -0.65625 -2.359375zm-0.265625 -7.265625q-1.765625 0.71875 -5.3125 1.21875q-2.0 0.296875 -2.84375 0.65625q-0.828125 0.359375 -1.28125 1.0625q-0.4375 0.6875 -0.4375 1.53125q0 1.3125 0.984375 2.1875q0.984375 0.859375 2.875 0.859375q1.875 0 3.34375 -0.828125q1.46875 -0.828125 2.15625 -2.25q0.515625 -1.09375 0.515625 -3.25l0 -1.1875zm20.963257 9.625l0 -2.421875q-1.828125 2.859375 -5.375 2.859375q-2.28125 0 -4.21875 -1.265625q-1.921875 -1.265625 -2.984375 -3.53125q-1.046875 -2.265625 -1.046875 -5.21875q0 -2.875 0.953125 -5.203125q0.96875 -2.34375 2.875 -3.59375q1.921875 -1.25 4.28125 -1.25q1.734375 0 3.09375 0.734375q1.359375 0.734375 2.203125 1.90625l0 -9.5l3.234375 0l0 26.484375l-3.015625 0zm-10.28125 -9.578125q0 3.6875 1.546875 5.515625q1.5625 1.828125 3.671875 1.828125q2.125 0 3.609375 -1.75q1.5 -1.75 1.5 -5.3125q0 -3.953125 -1.515625 -5.78125q-1.515625 -1.84375 -3.734375 -1.84375q-2.171875 0 -3.625 1.765625q-1.453125 1.765625 -1.453125 5.578125zm17.385132 -0.015625q0 -5.328125 2.953125 -7.890625q2.484375 -2.140625 6.03125 -2.140625q3.96875 0 6.46875 2.59375q2.515625 2.59375 2.515625 7.171875q0 3.703125 -1.109375 5.828125q-1.109375 2.109375 -3.234375 3.296875q-2.125 1.171875 -4.640625 1.171875q-4.015625 0 -6.5 -2.578125q-2.484375 -2.59375 -2.484375 -7.453125zm3.34375 0q0 3.6875 1.59375 5.53125q1.609375 1.828125 4.046875 1.828125q2.421875 0 4.03125 -1.84375q1.609375 -1.84375 1.609375 -5.625q0 -3.5625 -1.625 -5.390625q-1.609375 -1.828125 -4.015625 -1.828125q-2.4375 0 -4.046875 1.828125q-1.59375 1.8125 -1.59375 5.5zm41.56859 9.59375l0 -2.8125q-2.25 3.25 -6.09375 3.25q-1.6875 0 -3.171875 -0.65625q-1.46875 -0.65625 -2.1875 -1.640625q-0.703125 -0.984375 -1.0 -2.40625q-0.203125 -0.953125 -0.203125 -3.03125l0 -11.890625l3.265625 0l0 10.640625q0 2.546875 0.1875 3.4375q0.3125 1.28125 1.296875 2.015625q1.0 0.734375 2.46875 0.734375q1.453125 0 2.734375 -0.75q1.296875 -0.75 1.828125 -2.046875q0.53125 -1.296875 0.53125 -3.75l0 -10.28125l3.25 0l0 19.1875l-2.90625 0zm8.182007 0l0 -19.1875l2.921875 0l0 2.734375q2.125 -3.171875 6.109375 -3.171875q1.734375 0 3.1875 0.625q1.453125 0.625 2.171875 1.640625q0.734375 1.015625 1.015625 2.40625q0.1875 0.890625 0.1875 3.15625l0 11.796875l-3.25 0l0 -11.671875q0 -1.984375 -0.390625 -2.96875q-0.375 -0.984375 -1.34375 -1.5625q-0.953125 -0.59375 -2.265625 -0.59375q-2.078125 0 -3.59375 1.3125q-1.5 1.3125 -1.5 5.0l0 10.484375l-3.25 0zm30.537338 1.59375l3.15625 0.46875q0.203125 1.453125 1.109375 2.125q1.203125 0.90625 3.296875 0.90625q2.265625 0 3.484375 -0.90625q1.234375 -0.90625 1.671875 -2.53125q0.25 -0.984375 0.234375 -4.171875q-2.125 2.515625 -5.3125 2.515625q-3.953125 0 -6.125 -2.84375q-2.171875 -2.859375 -2.171875 -6.859375q0 -2.75 1.0 -5.0625q1.0 -2.328125 2.875 -3.59375q1.890625 -1.265625 4.4375 -1.265625q3.40625 0 5.609375 2.75l0 -2.3125l3.0 0l0 16.578125q0 4.484375 -0.921875 6.359375q-0.90625 1.875 -2.890625 2.953125q-1.96875 1.078125 -4.859375 1.078125q-3.4375 0 -5.5625 -1.546875q-2.109375 -1.53125 -2.03125 -4.640625zm2.6875 -11.53125q0 3.78125 1.5 5.515625q1.5 1.734375 3.765625 1.734375q2.234375 0 3.75 -1.71875q1.515625 -1.734375 1.515625 -5.421875q0 -3.515625 -1.5625 -5.296875q-1.5625 -1.796875 -3.765625 -1.796875q-2.171875 0 -3.6875 1.765625q-1.515625 1.75 -1.515625 5.21875zm18.635132 9.9375l0 -19.1875l2.921875 0l0 2.90625q1.125 -2.03125 2.0625 -2.6875q0.953125 -0.65625 2.09375 -0.65625q1.640625 0 3.34375 1.046875l-1.125 3.015625q-1.1875 -0.703125 -2.375 -0.703125q-1.078125 0 -1.921875 0.640625q-0.84375 0.640625 -1.203125 1.78125q-0.546875 1.734375 -0.546875 3.796875l0 10.046875l-3.25 0zm24.977432 -2.359375q-1.796875 1.53125 -3.46875 2.171875q-1.671875 0.625 -3.59375 0.625q-3.15625 0 -4.859375 -1.546875q-1.6875 -1.546875 -1.6875 -3.953125q0 -1.40625 0.640625 -2.5625q0.640625 -1.171875 1.671875 -1.875q1.046875 -0.703125 2.34375 -1.0625q0.953125 -0.265625 2.890625 -0.5q3.9375 -0.46875 5.796875 -1.109375q0.015625 -0.671875 0.015625 -0.859375q0 -1.984375 -0.921875 -2.796875q-1.25 -1.09375 -3.703125 -1.09375q-2.296875 0 -3.390625 0.796875q-1.09375 0.796875 -1.609375 2.84375l-3.1875 -0.4375q0.4375 -2.03125 1.421875 -3.28125q1.0 -1.265625 2.875 -1.9375q1.890625 -0.6875 4.359375 -0.6875q2.46875 0 4.0 0.578125q1.53125 0.578125 2.25 1.453125q0.734375 0.875 1.015625 2.21875q0.15625 0.828125 0.15625 3.0l0 4.328125q0 4.546875 0.203125 5.75q0.21875 1.1875 0.828125 2.296875l-3.390625 0q-0.5 -1.015625 -0.65625 -2.359375zm-0.265625 -7.265625q-1.765625 0.71875 -5.3125 1.21875q-2.0 0.296875 -2.84375 0.65625q-0.828125 0.359375 -1.28125 1.0625q-0.4375 0.6875 -0.4375 1.53125q0 1.3125 0.984375 2.1875q0.984375 0.859375 2.875 0.859375q1.875 0 3.34375 -0.828125q1.46875 -0.828125 2.15625 -2.25q0.515625 -1.09375 0.515625 -3.25l0 -1.1875zm9.291382 9.625l0 -16.65625l-2.875 0l0 -2.53125l2.875 0l0 -2.046875q0 -1.921875 0.34375 -2.859375q0.46875 -1.265625 1.640625 -2.046875q1.1875 -0.796875 3.328125 -0.796875q1.375 0 3.03125 0.328125l-0.484375 2.828125q-1.015625 -0.171875 -1.921875 -0.171875q-1.484375 0 -2.09375 0.640625q-0.609375 0.625 -0.609375 2.359375l0 1.765625l3.734375 0l0 2.53125l-3.734375 0l0 16.65625l-3.234375 0zm8.386566 -9.59375q0 -5.328125 2.953125 -7.890625q2.484375 -2.140625 6.03125 -2.140625q3.96875 0 6.46875 2.59375q2.515625 2.59375 2.515625 7.171875q0 3.703125 -1.109375 5.828125q-1.109375 2.109375 -3.234375 3.296875q-2.125 1.171875 -4.640625 1.171875q-4.015625 0 -6.5 -2.578125q-2.484375 -2.59375 -2.484375 -7.453125zm3.34375 0q0 3.6875 1.59375 5.53125q1.609375 1.828125 4.046875 1.828125q2.421875 0 4.03125 -1.84375q1.609375 -1.84375 1.609375 -5.625q0 -3.5625 -1.625 -5.390625q-1.609375 -1.828125 -4.015625 -1.828125q-2.4375 0 -4.046875 1.828125q-1.59375 1.8125 -1.59375 5.5zm19.525757 -5.890625l0 -3.703125l3.703125 0l0 3.703125l-3.703125 0zm0 15.484375l0 -3.703125l3.703125 0l0 3.703125l-3.703125 0z" fill-rule="nonzero"></path><path fill="#eeff41" d="m448.4882 192.31496l0 0c0 -17.403488 14.108307 -31.51181 31.51181 -31.51181l0 0c8.357452 0 16.37259 3.319992 22.282227 9.229599c5.909607 5.909607 9.229584 13.924759 9.229584 22.282211l0 0c0 17.403503 -14.108307 31.51181 -31.51181 31.51181l0 0c-17.403503 0 -31.51181 -14.108307 -31.51181 -31.51181z" fill-rule="nonzero"></path><path fill="#434343" d="m474.7129 200.85497l-3.9375 -12.453125l3.203125 0l2.328125 8.15625l2.140625 -8.15625l3.171875 0l2.078125 8.15625l2.375 -8.15625l3.25 0l-4.0 12.453125l-3.15625 0l-2.140625 -8.0l-2.109375 8.0l-3.203125 0z" fill-rule="nonzero"></path><path fill="#eeff41" d="m448.4882 329.93964l0 0c0 -17.403503 14.108307 -31.51181 31.51181 -31.51181l0 0c8.357452 0 16.37259 3.3199768 22.282227 9.229584c5.909607 5.909607 9.229584 13.924774 9.229584 22.282227l0 0c0 17.403503 -14.108307 31.51181 -31.51181 31.51181l0 0c-17.403503 0 -31.51181 -14.108307 -31.51181 -31.51181z" fill-rule="nonzero"></path><path fill="#434343" d="m473.4668 338.47964l4.484375 -6.40625l-4.296875 -6.046875l4.015625 0l2.203125 3.421875l2.328125 -3.421875l3.859375 0l-4.21875 5.90625l4.609375 6.546875l-4.046875 0l-2.53125 -3.859375l-2.546875 3.859375l-3.859375 0z" fill-rule="nonzero"></path><path fill="#eeff41" d="m262.09973 411.4987l0 0c0 -17.403503 14.108337 -31.51181 31.51181 -31.51181l0 0c8.357452 0 16.37262 3.3199768 22.282227 9.229584c5.909607 5.909607 9.229584 13.924774 9.229584 22.282227l0 0c0 17.403503 -14.108307 31.51181 -31.51181 31.51181l0 0c-17.403473 0 -31.51181 -14.108307 -31.51181 -31.51181z" fill-rule="nonzero"></path><path fill="#434343" d="m287.1096 407.58557l3.5 0l2.96875 8.84375l2.90625 -8.84375l3.421875 0l-4.40625 11.984375l-0.78125 2.171875q-0.4375 1.09375 -0.828125 1.65625q-0.390625 0.578125 -0.90625 0.9375q-0.5 0.359375 -1.25 0.546875q-0.734375 0.203125 -1.671875 0.203125q-0.953125 0 -1.875 -0.1875l-0.28125 -2.578125q0.765625 0.140625 1.390625 0.140625q1.140625 0 1.6875 -0.671875q0.5625 -0.671875 0.859375 -1.71875l-4.734375 -12.484375z" fill-rule="nonzero"></path><path fill="#eeff41" d="m634.87665 411.4987l0 0c0 -17.403503 14.108337 -31.51181 31.51178 -31.51181l0 0c8.357483 0 16.37262 3.3199768 22.282227 9.229584c5.909607 5.909607 9.229614 13.924774 9.229614 22.282227l0 0c0 17.403503 -14.108337 31.51181 -31.51184 31.51181l0 0c-17.403442 0 -31.51178 -14.108307 -31.51178 -31.51181z" fill-rule="nonzero"></path><path fill="#434343" d="m660.7947 420.0387l0 -2.5625l4.65625 -5.359375q1.15625 -1.3125 1.703125 -1.859375q-0.578125 0.03125 -1.515625 0.046875l-4.390625 0.015625l0 -2.734375l10.28125 0l0 2.34375l-4.75 5.484375l-1.671875 1.8125q1.359375 -0.078125 1.6875 -0.078125l5.109375 0l0 2.890625l-11.109375 0z" fill-rule="nonzero"></path><path fill="#000000" fill-opacity="0.0" d="m480.0 298.42783l0 -74.61418" fill-rule="nonzero"></path><path stroke="#4dd0e1" stroke-width="3.0" stroke-linejoin="round" stroke-linecap="butt" d="m480.0 298.42783l0 -64.33293" fill-rule="evenodd"></path><path fill="#4dd0e1" stroke="#4dd0e1" stroke-width="3.0" stroke-linecap="butt" d="m480.0 234.09491l3.3737488 3.3737488l-3.3737488 -9.269302l-3.3737488 9.269302z" fill-rule="evenodd"></path><path fill="#000000" fill-opacity="0.0" d="m448.4882 329.93964l-132.59842 59.275574" fill-rule="nonzero"></path><path stroke="#4dd0e1" stroke-width="3.0" stroke-linejoin="round" stroke-linecap="butt" d="m448.4882 329.93964l-123.21234 55.079712" fill-rule="evenodd"></path><path fill="#4dd0e1" stroke="#4dd0e1" stroke-width="3.0" stroke-linecap="butt" d="m325.27588 385.01935l1.703125 -4.4568787l-7.085388 6.862915l9.839111 -0.70288086z" fill-rule="evenodd"></path><path fill="#000000" fill-opacity="0.0" d="m644.10626 389.21646l-132.59845 -59.275574" fill-rule="nonzero"></path><path stroke="#4dd0e1" stroke-width="3.0" stroke-linejoin="round" stroke-linecap="butt" d="m644.1062 389.21646l-123.21228 -55.079712" fill-rule="evenodd"></path><path fill="#4dd0e1" stroke="#4dd0e1" stroke-width="3.0" stroke-linecap="butt" d="m520.8939 334.13675l4.456848 -1.703125l-9.839111 -0.70288086l7.085388 6.8628845z" fill-rule="evenodd"></path><path fill="#000000" fill-opacity="0.0" d="m325.12335 411.4987l309.7638 0" fill-rule="nonzero"></path><path stroke="#4dd0e1" stroke-width="3.0" stroke-linejoin="round" stroke-linecap="butt" d="m325.12335 411.4987l299.48254 0" fill-rule="evenodd"></path><path fill="#4dd0e1" stroke="#4dd0e1" stroke-width="3.0" stroke-linecap="butt" d="m624.6059 411.4987l-3.3737793 3.3737488l9.269287 -3.3737488l-9.269287 -3.3737488z" fill-rule="evenodd"></path><path fill="#000000" fill-opacity="0.0" d="m293.61154 379.98688c0 -93.84253 77.433075 -187.68504 154.86615 -187.68504" fill-rule="nonzero"></path><path stroke="#4dd0e1" stroke-width="3.0" stroke-linejoin="round" stroke-linecap="butt" d="m293.61154 379.98688c0 -46.921265 19.358276 -93.84253 48.39569 -129.03346c14.518677 -17.595474 31.457184 -32.25836 49.60556 -42.5224c9.074188 -5.132004 18.450867 -9.164307 27.97873 -11.9135895c4.7639465 -1.374649 9.565704 -2.4285583 14.386383 -3.1387787c1.2051697 -0.17755127 2.411499 -0.33363342 3.6187134 -0.46788025l0.61416626 -0.06550598" fill-rule="evenodd"></path><path fill="#4dd0e1" stroke="#4dd0e1" stroke-width="3.0" stroke-linecap="butt" d="m438.21082 192.84526l-3.1907349 3.5473633l9.078033 -3.8589783l-9.434662 -2.8790894z" fill-rule="evenodd"></path><path fill="#000000" fill-opacity="0.0" d="m511.5118 192.31496c77.433075 0 154.86612 93.842514 154.86612 187.68504" fill-rule="nonzero"></path><path stroke="#4dd0e1" stroke-width="3.0" stroke-linejoin="round" stroke-linecap="butt" d="m511.5118 192.31496c38.716522 0 77.433075 23.460632 106.47049 58.65158c14.518677 17.595474 26.617615 38.12352 35.086853 60.117874c4.234619 10.997162 7.5618286 22.3609 9.830383 33.90793c1.1342773 5.773529 2.0038452 11.592834 2.5899048 17.43512c0.14648438 1.4605408 0.27526855 2.9225159 0.38604736 4.38562c0.055419922 0.73150635 0.10626221 1.4633179 0.15258789 2.1953125l0.04309082 0.7149048" fill-rule="evenodd"></path><path fill="#4dd0e1" stroke="#4dd0e1" stroke-width="3.0" stroke-linecap="butt" d="m666.0711 369.72333l-3.4729004 -3.271576l3.6488647 9.16449l3.095642 -9.365845z" fill-rule="evenodd"></path><path fill="#000000" fill-opacity="0.0" d="m644.10626 433.7809c0 17.114777 -82.055115 34.22171 -164.11026 34.229584c-82.055115 0.007873535 -164.11023 -17.083313 -164.11023 -34.166595" fill-rule="nonzero"></path><path stroke="#4dd0e1" stroke-width="3.0" stroke-linejoin="round" stroke-linecap="butt" d="m644.1062 433.7809c0 17.114807 -82.055115 34.22171 -164.11023 34.229584c-41.027557 0.0039367676 -82.055115 -4.2669067 -112.825775 -10.674103c-15.385345 -3.2036133 -28.20642 -6.9413147 -37.181213 -10.945801c-2.2437134 -1.0011597 -4.2469788 -2.0189514 -5.989868 -3.0492554c-0.43569946 -0.25759888 -0.85513306 -0.5159302 -1.2579956 -0.7750244c-0.20141602 -0.1295166 -0.39871216 -0.2592163 -0.5917969 -0.38909912l-0.12475586 -0.0859375" fill-rule="evenodd"></path><path fill="#4dd0e1" stroke="#4dd0e1" stroke-width="3.0" stroke-linecap="butt" d="m322.02457 442.0913l4.720764 0.69192505l-8.240906 -5.4212036l2.8282166 9.450043z" fill-rule="evenodd"></path><path fill="#000000" fill-opacity="0.0" d="m480.0 249.13387l31.527557 0l0 42.362198l-31.527557 0z" fill-rule="nonzero"></path><path fill="#4dd0e1" d="m498.45312 265.78824l-1.65625 0.125q-0.21875 -0.984375 -0.640625 -1.421875q-0.671875 -0.71875 -1.65625 -0.71875q-0.8125 0 -1.40625 0.4375q-0.796875 0.578125 -1.25 1.6875q-0.453125 1.09375 -0.46875 3.140625q0.609375 -0.921875 1.46875 -1.359375q0.875 -0.453125 1.828125 -0.453125q1.671875 0 2.84375 1.234375q1.171875 1.234375 1.171875 3.171875q0 1.28125 -0.546875 2.390625q-0.546875 1.09375 -1.515625 1.6875q-0.96875 0.578125 -2.1875 0.578125q-2.09375 0 -3.40625 -1.53125q-1.3125 -1.546875 -1.3125 -5.0625q0 -3.953125 1.453125 -5.734375q1.265625 -1.5625 3.421875 -1.5625q1.609375 0 2.625 0.90625q1.03125 0.890625 1.234375 2.484375zm-6.8125 5.859375q0 0.859375 0.359375 1.65625q0.375 0.78125 1.03125 1.203125q0.65625 0.40625 1.375 0.40625q1.0625 0 1.8125 -0.84375q0.765625 -0.859375 0.765625 -2.328125q0 -1.40625 -0.75 -2.21875q-0.75 -0.8125 -1.890625 -0.8125q-1.125 0 -1.921875 0.8125q-0.78125 0.8125 -0.78125 2.125z" fill-rule="nonzero"></path><path fill="#000000" fill-opacity="0.0" d="m366.4252 319.08923l31.527557 0l0 42.362213l-31.527557 0z" fill-rule="nonzero"></path><path fill="#4dd0e1" d="m376.22208 342.4155l1.671875 -0.21875q0.28125 1.421875 0.96875 2.046875q0.703125 0.625 1.6875 0.625q1.1875 0 2.0 -0.8125q0.8125 -0.828125 0.8125 -2.03125q0 -1.140625 -0.765625 -1.890625q-0.75 -0.75 -1.90625 -0.75q-0.46875 0 -1.171875 0.1875l0.1875 -1.46875q0.15625 0.015625 0.265625 0.015625q1.0625 0 1.90625 -0.546875q0.859375 -0.5625 0.859375 -1.71875q0 -0.921875 -0.625 -1.515625q-0.609375 -0.609375 -1.59375 -0.609375q-0.96875 0 -1.625 0.609375q-0.640625 0.609375 -0.828125 1.84375l-1.671875 -0.296875q0.296875 -1.6875 1.375 -2.609375q1.09375 -0.921875 2.71875 -0.921875q1.109375 0 2.046875 0.484375q0.9375 0.46875 1.421875 1.296875q0.5 0.828125 0.5 1.75q0 0.890625 -0.46875 1.609375q-0.46875 0.71875 -1.40625 1.15625q1.21875 0.265625 1.875 1.15625q0.671875 0.875 0.671875 2.1875q0 1.78125 -1.296875 3.015625q-1.296875 1.234375 -3.28125 1.234375q-1.796875 0 -2.984375 -1.0625q-1.171875 -1.0625 -1.34375 -2.765625z" fill-rule="nonzero"></path><path fill="#000000" fill-opacity="0.0" d="m567.41205 323.50656l43.212646 0l0 42.362213l-43.212646 0z" fill-rule="nonzero"></path><path fill="#4dd0e1" d="m577.0214 346.34845l0 -1.6875l5.125 0l0 1.6875l-5.125 0zm6.5095825 -7.734375l0 -1.609375l8.796875 0l0 1.296875q-1.296875 1.375 -2.578125 3.671875q-1.265625 2.296875 -1.96875 4.71875q-0.5 1.703125 -0.640625 3.734375l-1.71875 0q0.03125 -1.609375 0.625 -3.875q0.609375 -2.28125 1.734375 -4.390625q1.140625 -2.109375 2.40625 -3.546875l-6.65625 0z" fill-rule="nonzero"></path><path fill="#000000" fill-opacity="0.0" d="m464.2362 411.4987l31.527588 0l0 42.362213l-31.527588 0z" fill-rule="nonzero"></path><path fill="#4dd0e1" d="m474.01746 434.85617l1.765625 -0.15625q0.1875 1.28125 0.890625 1.9375q0.71875 0.640625 1.71875 0.640625q1.203125 0 2.03125 -0.90625q0.84375 -0.90625 0.84375 -2.421875q0 -1.421875 -0.8125 -2.25q-0.796875 -0.828125 -2.09375 -0.828125q-0.796875 0 -1.453125 0.375q-0.640625 0.359375 -1.015625 0.953125l-1.578125 -0.203125l1.328125 -7.0l6.765625 0l0 1.609375l-5.4375 0l-0.734375 3.640625q1.234375 -0.84375 2.578125 -0.84375q1.78125 0 3.0 1.234375q1.234375 1.234375 1.234375 3.171875q0 1.84375 -1.078125 3.1875q-1.3125 1.65625 -3.578125 1.65625q-1.859375 0 -3.03125 -1.03125q-1.171875 -1.046875 -1.34375 -2.765625z" fill-rule="nonzero"></path><path fill="#000000" fill-opacity="0.0" d="m325.12335 206.77165l31.527557 0l0 42.362213l-31.527557 0z" fill-rule="nonzero"></path><path fill="#4dd0e1" d="m340.26398 233.69165l0 -3.25l-5.90625 0l0 -1.53125l6.21875 -8.8125l1.359375 0l0 8.8125l1.84375 0l0 1.53125l-1.84375 0l0 3.25l-1.671875 0zm0 -4.78125l0 -6.140625l-4.25 6.140625l4.25 0z" fill-rule="nonzero"></path><path fill="#000000" fill-opacity="0.0" d="m610.6247 215.04987l31.527527 0l0 42.362213l-31.527527 0z" fill-rule="nonzero"></path><path fill="#4dd0e1" d="m629.1872 240.36049l0 1.609375l-8.984375 0q-0.015625 -0.609375 0.1875 -1.15625q0.34375 -0.921875 1.09375 -1.8125q0.765625 -0.890625 2.1875 -2.0625q2.21875 -1.8125 3.0 -2.875q0.78125 -1.0625 0.78125 -2.015625q0 -0.984375 -0.71875 -1.671875q-0.703125 -0.6875 -1.84375 -0.6875q-1.203125 0 -1.9375 0.734375q-0.71875 0.71875 -0.71875 2.0l-1.71875 -0.171875q0.171875 -1.921875 1.328125 -2.921875q1.15625 -1.015625 3.09375 -1.015625q1.953125 0 3.09375 1.09375q1.140625 1.078125 1.140625 2.6875q0 0.8125 -0.34375 1.609375q-0.328125 0.78125 -1.109375 1.65625q-0.765625 0.859375 -2.5625 2.390625q-1.5 1.265625 -1.9375 1.71875q-0.421875 0.4375 -0.703125 0.890625l6.671875 0z" fill-rule="nonzero"></path><path fill="#000000" fill-opacity="0.0" d="m464.23096 468.0105l43.212616 0l0 42.362213l-43.212616 0z" fill-rule="nonzero"></path><path fill="#4dd0e1" d="m473.84033 490.8524l0 -1.6875l5.125 0l0 1.6875l-5.125 0zm6.400177 0.484375l1.671875 -0.21875q0.28125 1.421875 0.96875 2.046875q0.703125 0.625 1.6875 0.625q1.1875 0 2.0 -0.8125q0.8125 -0.828125 0.8125 -2.03125q0 -1.140625 -0.765625 -1.890625q-0.75 -0.75 -1.90625 -0.75q-0.46875 0 -1.171875 0.1875l0.1875 -1.46875q0.15625 0.015625 0.265625 0.015625q1.0625 0 1.90625 -0.546875q0.859375 -0.5625 0.859375 -1.71875q0 -0.921875 -0.625 -1.515625q-0.609375 -0.609375 -1.59375 -0.609375q-0.96875 0 -1.625 0.609375q-0.640625 0.609375 -0.828125 1.84375l-1.671875 -0.296875q0.296875 -1.6875 1.375 -2.609375q1.09375 -0.921875 2.71875 -0.921875q1.109375 0 2.046875 0.484375q0.9375 0.46875 1.421875 1.296875q0.5 0.828125 0.5 1.75q0 0.890625 -0.46875 1.609375q-0.46875 0.71875 -1.40625 1.15625q1.21875 0.265625 1.875 1.15625q0.671875 0.875 0.671875 2.1875q0 1.78125 -1.296875 3.015625q-1.296875 1.234375 -3.28125 1.234375q-1.796875 0 -2.984375 -1.0625q-1.171875 -1.0625 -1.34375 -2.765625z" fill-rule="nonzero"></path></g></svg>

